<?xml version="1.0" encoding="utf-8"?>
<!-- Generator: Adobe Illustrator 23.0.0, SVG Export Plug-In . SVG Version: 6.00 Build 0)  -->
<svg version="1.1" id="Layer_1" xmlns="http://www.w3.org/2000/svg" xmlns:xlink="http://www.w3.org/1999/xlink" x="0px" y="0px"
	 viewBox="0 0 1000 1000" style="enable-background:new 0 0 1000 1000;" xml:space="preserve">
<style type="text/css">
	.st0{fill:#F25652;}
	.st1{fill:#3E4E59;}
	.st2{fill:none;stroke:#FF2C1F;stroke-width:2;stroke-miterlimit:10;}
</style>
<g>
	<polygon class="st0" points="690.1,485.8 300.7,485.8 421,411.8 579.7,411.8 	"/>
	<polygon class="st0" points="515.9,126 712.3,462.2 587.8,395.7 507.8,258.6 	"/>
	<polygon class="st0" points="480.4,126 284,462.2 408.5,395.7 488.5,258.6 	"/>
	<circle class="st0" cx="495.4" cy="352.7" r="29.6"/>
</g>
<g>
	<path class="st1" d="M169.3,589.3c6.6-1,14.4-1.7,23-1.7c15.5,0,26.6,3.6,33.9,10.4c7.5,6.8,11.8,16.5,11.8,30.1
		c0,13.7-4.2,24.8-12,32.5c-7.8,7.8-20.7,12-37,12c-7.7,0-14.2-0.4-19.6-1V589.3z M180.1,663.3c2.7,0.5,6.7,0.6,10.9,0.6
		c23.1,0,35.7-12.9,35.7-35.5c0.1-19.8-11.1-32.3-33.9-32.3c-5.6,0-9.8,0.5-12.7,1.1V663.3z"/>
	<path class="st1" d="M258.3,643.8c0.2,14.8,9.7,20.9,20.6,20.9c7.8,0,12.5-1.4,16.6-3.1l1.9,7.8c-3.9,1.7-10.4,3.7-20,3.7
		c-18.5,0-29.6-12.2-29.6-30.3c0-18.1,10.7-32.4,28.2-32.4c19.6,0,24.8,17.3,24.8,28.3c0,2.2-0.2,4-0.4,5.1H258.3z M290.3,636
		c0.1-7-2.9-17.8-15.2-17.8c-11.1,0-15.9,10.2-16.8,17.8H290.3z"/>
	<path class="st1" d="M314.4,583.7h10.9v88.2h-10.9V583.7z"/>
	<path class="st1" d="M356.9,594.5v17.3h15.7v8.3h-15.7v32.4c0,7.5,2.1,11.7,8.2,11.7c2.9,0,5-0.4,6.3-0.7l0.5,8.2
		c-2.1,0.9-5.5,1.5-9.7,1.5c-5.1,0-9.2-1.6-11.8-4.6c-3.1-3.2-4.2-8.6-4.2-15.7v-32.8h-9.3v-8.3h9.3v-14.4L356.9,594.5z"/>
	<path class="st1" d="M418.1,671.9l-0.9-7.6h-0.4c-3.4,4.7-9.8,8.9-18.4,8.9c-12.2,0-18.4-8.6-18.4-17.3c0-14.5,12.9-22.5,36.1-22.4
		v-1.2c0-5-1.4-13.9-13.7-13.9c-5.6,0-11.4,1.7-15.7,4.5l-2.5-7.2c5-3.2,12.2-5.3,19.8-5.3c18.4,0,22.9,12.5,22.9,24.6v22.5
		c0,5.2,0.2,10.3,1,14.4H418.1z M416.5,641.2c-11.9-0.2-25.5,1.9-25.5,13.5c0,7.1,4.7,10.4,10.3,10.4c7.8,0,12.8-5,14.5-10.1
		c0.4-1.1,0.6-2.4,0.6-3.5V641.2z"/>
	<path class="st1" d="M542,635.1c-0.6-11.7-1.4-25.7-1.2-36.1h-0.4c-2.9,9.8-6.3,20.2-10.6,31.8L515,671.4h-8.2l-13.5-39.9
		c-4-11.8-7.3-22.6-9.7-32.5h-0.2c-0.2,10.4-0.9,24.5-1.6,37l-2.2,35.9h-10.3l5.8-83.7h13.8l14.3,40.5c3.5,10.3,6.3,19.5,8.4,28.2
		h0.4c2.1-8.4,5.1-17.6,8.8-28.2l14.9-40.5h13.8l5.2,83.7h-10.6L542,635.1z"/>
	<path class="st1" d="M577.7,643.8c0.2,14.8,9.7,20.9,20.6,20.9c7.8,0,12.5-1.4,16.6-3.1l1.9,7.8c-3.9,1.7-10.4,3.7-20,3.7
		c-18.5,0-29.6-12.2-29.6-30.3c0-18.1,10.7-32.4,28.2-32.4c19.6,0,24.8,17.3,24.8,28.3c0,2.2-0.2,4-0.4,5.1H577.7z M609.8,636
		c0.1-7-2.9-17.8-15.2-17.8c-11.1,0-15.9,10.2-16.8,17.8H609.8z"/>
	<path class="st1" d="M638.6,611.8l8.6,12.9c2.2,3.4,4.1,6.5,6.1,9.8h0.4c2-3.6,4-6.7,6-9.9l8.4-12.8h11.8l-20.5,29.1l21.1,31.1H668
		l-8.8-13.5c-2.4-3.5-4.3-6.8-6.5-10.4h-0.2c-2,3.6-4.1,6.8-6.3,10.4l-8.7,13.5h-12l21.4-30.7l-20.4-29.4H638.6z"/>
	<path class="st1" d="M703.2,594.9c0.1,3.7-2.6,6.7-7,6.7c-3.9,0-6.6-3-6.6-6.7c0-3.9,2.9-6.8,6.8-6.8
		C700.6,588,703.2,591,703.2,594.9z M691,671.9v-60.1H702v60.1H691z"/>
	<path class="st1" d="M763,669.6c-2.9,1.5-9.2,3.5-17.3,3.5c-18.1,0-29.9-12.3-29.9-30.7c0-18.5,12.7-31.9,32.3-31.9
		c6.5,0,12.2,1.6,15.2,3.1l-2.5,8.4c-2.6-1.5-6.7-2.9-12.7-2.9c-13.8,0-21.2,10.2-21.2,22.7c0,13.9,8.9,22.5,20.9,22.5
		c6.2,0,10.3-1.6,13.4-3L763,669.6z"/>
	<path class="st1" d="M829.4,641.3c0,22.2-15.4,31.9-29.9,31.9c-16.3,0-28.8-11.9-28.8-30.9c0-20.1,13.2-31.9,29.8-31.9
		C817.7,610.4,829.4,622.9,829.4,641.3z M781.7,641.9c0,13.2,7.6,23.1,18.3,23.1c10.4,0,18.3-9.8,18.3-23.4c0-10.2-5.1-23.1-18-23.1
		S781.7,630.5,781.7,641.9z"/>
</g>
<line class="st2" x1="190.3" y1="726.4" x2="797.6" y2="726.4"/>
<g>
	<path class="st1" d="M226.4,783.7h-13.7v12.7H228v3.8h-19.8V765h19v3.8h-14.4v11.1h13.7V783.7z"/>
	<path class="st1" d="M242,795.4c1.4,0.9,3.8,1.8,6,1.8c3.3,0,4.9-1.7,4.9-3.8c0-2.2-1.3-3.4-4.7-4.6c-4.5-1.6-6.7-4.1-6.7-7.1
		c0-4.1,3.3-7.4,8.7-7.4c2.6,0,4.8,0.7,6.2,1.6l-1.1,3.3c-1-0.6-2.8-1.5-5.2-1.5c-2.7,0-4.2,1.6-4.2,3.4c0,2.1,1.5,3,4.8,4.3
		c4.4,1.7,6.6,3.9,6.6,7.6c0,4.4-3.4,7.6-9.4,7.6c-2.8,0-5.3-0.7-7.1-1.7L242,795.4z"/>
	<path class="st1" d="M290.1,799.2c-1.2,0.6-3.9,1.5-7.2,1.5c-7.6,0-12.6-5.2-12.6-12.9c0-7.8,5.3-13.4,13.6-13.4
		c2.7,0,5.1,0.7,6.4,1.3l-1,3.5c-1.1-0.6-2.8-1.2-5.3-1.2c-5.8,0-8.9,4.3-8.9,9.5c0,5.8,3.8,9.4,8.8,9.4c2.6,0,4.3-0.7,5.6-1.3
		L290.1,799.2z"/>
	<path class="st1" d="M325.4,793.3c0,2.6,0.1,4.9,0.2,6.9h-4.1l-0.3-4.1h-0.1c-1.2,2-3.9,4.7-8.3,4.7c-4,0-8.7-2.2-8.7-11.1v-14.8
		h4.6v14c0,4.8,1.5,8,5.6,8c3.1,0,5.2-2.1,6-4.2c0.3-0.7,0.4-1.5,0.4-2.3v-15.5h4.6V793.3z"/>
	<path class="st1" d="M344.5,788.4c0.1,6.2,4.1,8.8,8.7,8.8c3.3,0,5.3-0.6,7-1.3l0.8,3.3c-1.6,0.7-4.4,1.6-8.4,1.6
		c-7.8,0-12.4-5.1-12.4-12.7s4.5-13.6,11.8-13.6c8.2,0,10.4,7.2,10.4,11.9c0,0.9-0.1,1.7-0.2,2.1H344.5z M357.9,785.1
		c0.1-2.9-1.2-7.5-6.4-7.5c-4.6,0-6.7,4.3-7,7.5H357.9z"/>
	<path class="st1" d="M376.9,763.1h4.6v37h-4.6V763.1z"/>
	<path class="st1" d="M412,800.1l-0.4-3.2h-0.2c-1.4,2-4.1,3.8-7.7,3.8c-5.1,0-7.7-3.6-7.7-7.2c0-6.1,5.4-9.4,15.2-9.4v-0.5
		c0-2.1-0.6-5.8-5.7-5.8c-2.3,0-4.8,0.7-6.6,1.9l-1-3c2.1-1.4,5.1-2.2,8.3-2.2c7.7,0,9.6,5.3,9.6,10.3v9.4c0,2.2,0.1,4.3,0.4,6H412z
		 M411.4,787.3c-5-0.1-10.7,0.8-10.7,5.7c0,3,2,4.4,4.3,4.4c3.3,0,5.4-2.1,6.1-4.2c0.2-0.5,0.3-1,0.3-1.5V787.3z"/>
	<path class="st1" d="M473.8,763.1v30.5c0,2.2,0.1,4.8,0.2,6.5h-4.1l-0.2-4.4h-0.1c-1.4,2.8-4.5,5-8.6,5c-6.1,0-10.8-5.2-10.8-12.8
		c-0.1-8.4,5.2-13.6,11.3-13.6c3.9,0,6.5,1.8,7.6,3.9h0.1v-15.1H473.8z M469.2,785.2c0-0.6-0.1-1.4-0.2-1.9
		c-0.7-2.9-3.2-5.3-6.6-5.3c-4.7,0-7.6,4.2-7.6,9.8c0,5.1,2.5,9.3,7.5,9.3c3.1,0,5.9-2,6.7-5.5c0.2-0.6,0.2-1.3,0.2-2V785.2z"/>
	<path class="st1" d="M492.8,788.4c0.1,6.2,4.1,8.8,8.7,8.8c3.3,0,5.3-0.6,7-1.3l0.8,3.3c-1.6,0.7-4.4,1.6-8.4,1.6
		c-7.8,0-12.4-5.1-12.4-12.7s4.5-13.6,11.8-13.6c8.2,0,10.4,7.2,10.4,11.9c0,0.9-0.1,1.7-0.2,2.1H492.8z M506.3,785.1
		c0.1-2.9-1.2-7.5-6.4-7.5c-4.6,0-6.7,4.3-7,7.5H506.3z"/>
	<path class="st1" d="M551,789.1l-3.6,11.1h-4.7l11.9-35.1h5.5l12,35.1h-4.8l-3.8-11.1H551z M562.5,785.5l-3.4-10.1
		c-0.8-2.3-1.3-4.4-1.8-6.4h-0.1c-0.5,2.1-1.1,4.2-1.8,6.4l-3.4,10.2H562.5z"/>
	<path class="st1" d="M586.6,774.9l5,14.2c0.8,2.3,1.5,4.4,2,6.5h0.2c0.6-2.1,1.3-4.2,2.1-6.5l4.9-14.2h4.8l-9.9,25.2h-4.4
		l-9.6-25.2H586.6z"/>
	<path class="st1" d="M623.9,767.8c0.1,1.6-1.1,2.8-2.9,2.8c-1.6,0-2.8-1.3-2.8-2.8c0-1.6,1.2-2.9,2.9-2.9
		C622.8,764.9,623.9,766.2,623.9,767.8z M618.8,800.1v-25.2h4.6v25.2H618.8z"/>
	<path class="st1" d="M653.8,800.1l-0.4-3.2h-0.2c-1.4,2-4.1,3.8-7.7,3.8c-5.1,0-7.7-3.6-7.7-7.2c0-6.1,5.4-9.4,15.2-9.4v-0.5
		c0-2.1-0.6-5.8-5.7-5.8c-2.3,0-4.8,0.7-6.6,1.9l-1-3c2.1-1.4,5.1-2.2,8.3-2.2c7.7,0,9.6,5.3,9.6,10.3v9.4c0,2.2,0.1,4.3,0.4,6
		H653.8z M653.1,787.3c-5-0.1-10.7,0.8-10.7,5.7c0,3,2,4.4,4.3,4.4c3.3,0,5.4-2.1,6.1-4.2c0.2-0.5,0.3-1,0.3-1.5V787.3z"/>
	<path class="st1" d="M691.8,799.2c-1.2,0.6-3.9,1.5-7.2,1.5c-7.6,0-12.6-5.2-12.6-12.9c0-7.8,5.3-13.4,13.6-13.4
		c2.7,0,5.1,0.7,6.4,1.3l-1,3.5c-1.1-0.6-2.8-1.2-5.3-1.2c-5.8,0-8.9,4.3-8.9,9.5c0,5.8,3.8,9.4,8.8,9.4c2.6,0,4.3-0.7,5.6-1.3
		L691.8,799.2z"/>
	<path class="st1" d="M711.2,767.8c0.1,1.6-1.1,2.8-2.9,2.8c-1.6,0-2.8-1.3-2.8-2.8c0-1.6,1.2-2.9,2.9-2.9
		C710.1,764.9,711.2,766.2,711.2,767.8z M706.1,800.1v-25.2h4.6v25.2H706.1z"/>
	<path class="st1" d="M750,787.3c0,9.3-6.5,13.4-12.6,13.4c-6.8,0-12.1-5-12.1-13c0-8.4,5.5-13.4,12.5-13.4
		C745.1,774.3,750,779.6,750,787.3z M729.9,787.6c0,5.5,3.2,9.7,7.7,9.7c4.4,0,7.7-4.1,7.7-9.8c0-4.3-2.1-9.7-7.6-9.7
		C732.3,777.8,729.9,782.8,729.9,787.6z"/>
	<path class="st1" d="M764.6,781.7c0-2.6-0.1-4.7-0.2-6.8h4.1l0.3,4.2h0.1c1.3-2.4,4.2-4.7,8.3-4.7c3.5,0,8.9,2.1,8.9,10.7v15.1
		h-4.6v-14.5c0-4.1-1.5-7.5-5.8-7.5c-3,0-5.4,2.1-6.2,4.7c-0.2,0.6-0.3,1.4-0.3,2.1v15.2h-4.6V781.7z"/>
</g>
</svg>
